<?xml version="1.0" encoding="utf-8"?>
<!-- Generator: Adobe Illustrator 25.2.1, SVG Export Plug-In . SVG Version: 6.00 Build 0)  -->
<!DOCTYPE svg PUBLIC "-//W3C//DTD SVG 1.0//EN" "http://www.w3.org/TR/2001/REC-SVG-20010904/DTD/svg10.dtd" [
	<!ENTITY ns_extend "http://ns.adobe.com/Extensibility/1.0/">
	<!ENTITY ns_ai "http://ns.adobe.com/AdobeIllustrator/10.0/">
	<!ENTITY ns_graphs "http://ns.adobe.com/Graphs/1.0/">
	<!ENTITY ns_vars "http://ns.adobe.com/Variables/1.0/">
	<!ENTITY ns_imrep "http://ns.adobe.com/ImageReplacement/1.0/">
	<!ENTITY ns_sfw "http://ns.adobe.com/SaveForWeb/1.0/">
	<!ENTITY ns_custom "http://ns.adobe.com/GenericCustomNamespace/1.0/">
	<!ENTITY ns_adobe_xpath "http://ns.adobe.com/XPath/1.0/">
]>
<svg version="1.0" id="Layer_1" xmlns:x="&ns_extend;" xmlns:i="&ns_ai;" xmlns:graph="&ns_graphs;"
	 xmlns="http://www.w3.org/2000/svg" xmlns:xlink="http://www.w3.org/1999/xlink" x="0px" y="0px" width="64px" height="64px"
	 viewBox="0 0 64 64" enable-background="new 0 0 64 64" xml:space="preserve">
<metadata>
	<sfw  xmlns="&ns_sfw;">
		<slices></slices>
		<sliceSourceBounds  bottomLeftOrigin="true" height="59.7" width="64" x="0" y="2.1"></sliceSourceBounds>
	</sfw>
</metadata>
<rect y="2.2" fill="rgba(255, 255, 255, 0)" width="64" height="59.7"/>
<g>
	<polygon fill="#FFFFFF" points="7.1,9.9 7.1,52.8 10.7,52.8 10.7,51.8 8.1,51.8 8.1,10.9 55.9,10.9 55.9,51.8 53.3,51.8 53.3,52.8 
		56.9,52.8 56.9,9.9 	"/>
	<path fill="#FFFFFF" d="M31.3,28.1c-0.2-0.8-0.6-1.6-1-2.3c-0.4-0.7-1-1.4-1.6-1.9s-1.3-1-2.1-1.3c-0.8-0.3-1.6-0.5-2.4-0.5
		c-1.2,0-2.2,0.3-3.2,0.8c-0.9,0.5-1.7,1.2-2.3,2.1c-0.6,0.9-1.1,1.9-1.4,3s-0.5,2.3-0.5,3.4c0,1.2,0.2,2.4,0.5,3.5
		c0.4,1.1,0.9,2,1.5,2.8c0.7,0.8,1.4,1.4,2.4,1.9s2,0.7,3.1,0.7c0.9,0,1.7-0.2,2.5-0.5s1.5-0.8,2.1-1.3s1.1-1.1,1.5-1.8
		s0.7-1.4,0.9-2.2h0.3l-0.1,5.7h-0.3c-0.2-0.3-0.4-0.6-0.6-0.8S30.2,39,30.1,39c0,0-0.2,0.1-0.5,0.3s-0.7,0.4-1.2,0.6
		c-0.5,0.2-1.1,0.4-1.9,0.6c-0.7,0.2-1.6,0.2-2.6,0.2c-1.6,0-3-0.2-4.3-0.7s-2.4-1.1-3.3-1.9c-0.9-0.8-1.6-1.8-2.1-3
		s-0.7-2.4-0.7-3.8c0-0.3,0-0.7,0.1-1.1c0-0.4,0.1-0.8,0.2-1.3c0.1-0.4,0.3-0.9,0.5-1.4s0.5-1,0.8-1.5c0.4-0.6,0.8-1.1,1.3-1.7
		c0.5-0.5,1.2-1,1.9-1.4c0.7-0.4,1.5-0.7,2.5-1c0.9-0.2,1.9-0.4,3.1-0.4c1,0,1.9,0.1,2.7,0.3c0.8,0.2,1.4,0.4,1.9,0.6
		s0.9,0.4,1.2,0.6c0.3,0.2,0.4,0.3,0.5,0.3c0,0,0.1,0,0.2-0.1s0.2-0.2,0.3-0.3c0.1-0.1,0.2-0.2,0.3-0.4c0.1-0.1,0.2-0.3,0.3-0.5h0.3
		v6L31.3,28.1z M50.2,37.2c-0.2,0.5-0.4,0.9-0.7,1.3c-0.3,0.4-0.7,0.7-1,1c-0.4,0.3-0.8,0.5-1.1,0.6c-0.7,0.2-1.4,0.4-2.2,0.4
		c-0.8,0.1-1.6,0.1-2.3,0.1H34v-0.3c0.4-0.1,0.8-0.2,1.2-0.3c0.4-0.2,0.7-0.4,0.9-0.6c0.1-0.1,0.2-0.3,0.2-0.5
		c0.1-0.2,0.1-0.4,0.1-0.7s0.1-0.5,0.1-0.8s0-0.6,0-0.8s0-0.6,0-1s0-0.9,0-1.4s0-1,0-1.5s0-1,0-1.5s0-1,0-1.4s0-0.8,0-1.1
		c0-0.4,0-0.8,0-1.2c0-0.4,0-0.9,0-1.4c0-0.3,0-0.6,0-0.9s0-0.6-0.1-0.9c0-0.3-0.1-0.6-0.2-0.8c-0.1-0.2-0.1-0.4-0.2-0.5
		c-0.3-0.3-0.5-0.5-0.8-0.6s-0.6-0.2-1.1-0.2v-0.3h8.7c0.7,0,1.3,0,1.9,0.1c0.6,0.1,1.2,0.2,1.7,0.4c0.9,0.3,1.6,0.8,2.2,1.5
		c0.6,0.7,0.9,1.5,0.9,2.6s-0.4,2.1-1.1,2.7c-0.7,0.7-1.7,1.2-2.9,1.4v0.1c0.6,0.1,1.2,0.2,1.8,0.5c0.6,0.2,1.1,0.5,1.6,0.9
		c0.5,0.4,0.9,0.9,1.1,1.4c0.3,0.5,0.4,1.2,0.4,1.8C50.5,36.2,50.4,36.7,50.2,37.2z M45.8,24.4c-0.4-0.7-1-1.2-1.6-1.4
		c-0.8-0.3-1.8-0.5-3-0.5c-0.4,0-0.7,0-1,0.1c-0.3,0-0.5,0.1-0.7,0.1c0,0.1,0,0.2-0.1,0.3c0,0.1,0,0.2,0,0.3c0,0.1,0,0.3,0,0.5
		s0,0.4,0,0.7c0,0.6,0,1.3,0,2s0,1.4,0,2.1c0,0.6,0,1.2,0,1.7s0,0.7,0,0.8c0.6,0,1,0,1.4,0s0.7,0,1,0c1.5-0.1,2.7-0.5,3.5-1.3
		s1.2-1.8,1.2-2.9C46.5,25.8,46.2,25,45.8,24.4z M47.2,34.4c-0.2-0.4-0.4-0.8-0.7-1.2s-0.6-0.7-1-1s-0.8-0.5-1.3-0.6
		c-0.4-0.1-0.8-0.2-1.1-0.2c-0.4,0-0.8-0.1-1.3-0.1h-2.5c0,0.6,0,1.1,0,1.7c0,0.6,0,1.1,0,1.6s0,0.9,0,1.3c0,0.4,0,0.8,0,1
		c0,0.7,0,1.2,0.1,1.6c0,0.4,0.2,0.8,0.4,1s0.4,0.3,0.7,0.5c0.3,0.1,0.8,0.2,1.3,0.2s1,0,1.6-0.1s1.2-0.2,1.7-0.5
		c0.7-0.4,1.3-0.9,1.7-1.5s0.6-1.4,0.6-2.3C47.5,35.3,47.4,34.9,47.2,34.4z"/>
	<g>
		<path fill="#FFFFFF" d="M13.7,53.8c-0.3-0.2-0.6-0.4-0.8-0.7s-0.3-0.7-0.3-1c0-0.4,0.1-0.7,0.3-1s0.4-0.6,0.8-0.7
			c0.3-0.2,0.7-0.3,1.1-0.3c0.3,0,0.6,0.1,0.9,0.2c0.3,0.1,0.5,0.3,0.7,0.5l-0.5,0.4c-0.3-0.3-0.6-0.5-1.1-0.5
			c-0.3,0-0.5,0.1-0.7,0.2c-0.2,0.1-0.4,0.3-0.5,0.5s-0.2,0.4-0.2,0.7s0.1,0.5,0.2,0.7c0.1,0.2,0.3,0.4,0.5,0.5s0.5,0.2,0.7,0.2
			c0.4,0,0.8-0.2,1.1-0.5l0.5,0.5c-0.2,0.2-0.4,0.4-0.7,0.5s-0.6,0.2-0.9,0.2C14.3,54.1,14,54,13.7,53.8z"/>
		<path fill="#FFFFFF" d="M17.3,53.8c-0.2-0.1-0.4-0.3-0.6-0.6c-0.1-0.2-0.2-0.5-0.2-0.8s0.1-0.6,0.2-0.8s0.3-0.4,0.6-0.5
			c0.2-0.1,0.5-0.2,0.8-0.2s0.6,0.1,0.8,0.2c0.2,0.1,0.4,0.3,0.6,0.5c0.1,0.2,0.2,0.5,0.2,0.8s-0.1,0.6-0.2,0.8s-0.3,0.4-0.6,0.6
			C18.7,54,18.4,54,18.1,54C17.8,54,17.5,54,17.3,53.8z M18.8,53.2c0.2-0.2,0.3-0.4,0.3-0.7S19,52,18.8,51.8
			c-0.2-0.2-0.4-0.3-0.6-0.3c-0.3,0-0.5,0.1-0.6,0.3c-0.2,0.2-0.3,0.4-0.3,0.7s0.1,0.5,0.3,0.7c0.2,0.2,0.4,0.3,0.6,0.3
			C18.4,53.4,18.6,53.4,18.8,53.2z"/>
		<path fill="#FFFFFF" d="M21.1,50.8V51H22v0.6h-0.8V54h-0.7v-2.4H20V51h0.5v-0.2c0-0.3,0.1-0.6,0.3-0.8c0.2-0.2,0.5-0.3,0.8-0.3
			s0.5,0.1,0.6,0.2L22,50.5c-0.1-0.1-0.3-0.1-0.4-0.1C21.3,50.3,21.1,50.5,21.1,50.8z"/>
		<path fill="#FFFFFF" d="M23.2,50.8V51H24v0.6h-0.8V54h-0.7v-2.4H22V51h0.5v-0.2c0-0.3,0.1-0.6,0.3-0.8c0.2-0.2,0.5-0.3,0.8-0.3
			s0.5,0.1,0.6,0.2L24,50.5c-0.1-0.1-0.3-0.1-0.4-0.1C23.3,50.3,23.2,50.5,23.2,50.8z"/>
		<path fill="#FFFFFF" d="M27.2,52.7h-2.4c0,0.2,0.1,0.4,0.3,0.5c0.2,0.1,0.4,0.2,0.7,0.2c0.3,0,0.6-0.1,0.8-0.3l0.4,0.4
			c-0.1,0.2-0.3,0.3-0.5,0.4C26.3,54,26,54,25.8,54c-0.3,0-0.6-0.1-0.9-0.2c-0.3-0.1-0.4-0.3-0.6-0.6c-0.1-0.2-0.2-0.5-0.2-0.8
			s0.1-0.6,0.2-0.8s0.3-0.4,0.6-0.6c0.2-0.1,0.5-0.2,0.8-0.2s0.6,0.1,0.8,0.2c0.2,0.1,0.4,0.3,0.5,0.5s0.2,0.5,0.2,0.8
			C27.2,52.6,27.2,52.6,27.2,52.7z M25.1,51.7c-0.2,0.1-0.3,0.3-0.3,0.5h1.7c0-0.2-0.1-0.4-0.3-0.5c-0.2-0.1-0.3-0.2-0.6-0.2
			C25.5,51.5,25.3,51.6,25.1,51.7z"/>
		<path fill="#FFFFFF" d="M30.6,52.7h-2.4c0,0.2,0.1,0.4,0.3,0.5c0.2,0.1,0.4,0.2,0.7,0.2c0.3,0,0.6-0.1,0.8-0.3l0.4,0.4
			c-0.1,0.2-0.3,0.3-0.5,0.4C29.7,54,29.5,54,29.2,54s-0.6-0.1-0.9-0.2c-0.3-0.1-0.4-0.3-0.6-0.6c-0.1-0.2-0.2-0.5-0.2-0.8
			s0.1-0.6,0.2-0.8s0.3-0.4,0.6-0.6c0.2-0.1,0.5-0.2,0.8-0.2s0.6,0.1,0.8,0.2c0.2,0.1,0.4,0.3,0.5,0.5s0.2,0.5,0.2,0.8
			C30.7,52.6,30.7,52.6,30.6,52.7z M28.6,51.7c-0.2,0.1-0.3,0.3-0.3,0.5H30c0-0.2-0.1-0.4-0.3-0.5c-0.2-0.1-0.3-0.2-0.6-0.2
			C28.9,51.5,28.7,51.6,28.6,51.7z"/>
		<path fill="#FFFFFF" d="M36.2,52.3c0.1,0.2,0.2,0.4,0.2,0.6c0,0.3-0.1,0.6-0.4,0.8c-0.3,0.2-0.6,0.3-1.2,0.3h-2v-4h1.9
			c0.5,0,0.8,0.1,1.1,0.3s0.4,0.4,0.4,0.8c0,0.2,0,0.4-0.1,0.5c-0.1,0.2-0.2,0.3-0.4,0.3C35.9,52,36,52.1,36.2,52.3z M33.6,50.6v1.1
			h1c0.3,0,0.5,0,0.6-0.1s0.2-0.2,0.2-0.4s-0.1-0.3-0.2-0.4c-0.1-0.1-0.3-0.1-0.6-0.1L33.6,50.6L33.6,50.6z M35.6,52.9
			c0-0.4-0.3-0.6-0.9-0.6h-1.2v1.1h1.2C35.3,53.4,35.6,53.2,35.6,52.9z"/>
		<path fill="#FFFFFF" d="M37.8,53.8c-0.3-0.2-0.6-0.4-0.8-0.7s-0.3-0.7-0.3-1c0-0.4,0.1-0.7,0.3-1s0.4-0.6,0.8-0.7
			c0.3-0.2,0.7-0.3,1.1-0.3c0.4,0,0.8,0.1,1.1,0.3s0.6,0.4,0.8,0.7s0.3,0.7,0.3,1c0,0.4-0.1,0.7-0.3,1s-0.4,0.6-0.8,0.7
			c-0.3,0.2-0.7,0.3-1.1,0.3S38.2,54,37.8,53.8z M39.6,53.2c0.2-0.1,0.4-0.3,0.5-0.5s0.2-0.5,0.2-0.7c0-0.3-0.1-0.5-0.2-0.7
			c-0.1-0.2-0.3-0.4-0.5-0.5s-0.4-0.2-0.7-0.2s-0.5,0.1-0.7,0.2c-0.2,0.1-0.4,0.3-0.5,0.5s-0.2,0.5-0.2,0.7c0,0.3,0.1,0.5,0.2,0.7
			c0.1,0.2,0.3,0.4,0.5,0.5s0.4,0.2,0.7,0.2C39.2,53.4,39.4,53.4,39.6,53.2z"/>
		<path fill="#FFFFFF" d="M42.5,53.8c-0.3-0.2-0.6-0.4-0.8-0.7s-0.3-0.7-0.3-1c0-0.4,0.1-0.7,0.3-1s0.4-0.6,0.8-0.7
			c0.3-0.2,0.7-0.3,1.1-0.3c0.4,0,0.8,0.1,1.1,0.3s0.6,0.4,0.8,0.7s0.3,0.7,0.3,1c0,0.4-0.1,0.7-0.3,1s-0.4,0.6-0.8,0.7
			c-0.3,0.2-0.7,0.3-1.1,0.3S42.9,54,42.5,53.8z M44.3,53.2c0.2-0.1,0.4-0.3,0.5-0.5C45,52.5,45,52.3,45,52s-0.1-0.5-0.2-0.7
			c-0.1-0.2-0.3-0.4-0.5-0.5s-0.4-0.2-0.7-0.2s-0.5,0.1-0.7,0.2c-0.2,0.1-0.4,0.3-0.5,0.5s-0.2,0.5-0.2,0.7c0,0.3,0.1,0.5,0.2,0.7
			c0.1,0.2,0.3,0.4,0.5,0.5s0.4,0.2,0.7,0.2C43.9,53.4,44.1,53.4,44.3,53.2z"/>
		<path fill="#FFFFFF" d="M50.1,54v-2.6l-1.3,2.2h-0.3l-1.3-2.1V54h-0.7v-4h0.6l1.6,2.6l1.5-2.6h0.6v4H50.1z"/>
	</g>
</g>
</svg>
